<svg width="50" height="52" viewBox="0 0 50 52" fill="none" xmlns="http://www.w3.org/2000/svg">
<rect x="0.537109" y="0.557861" width="48.5627" height="50.9053" rx="5" fill="white"/>
<mask id="mask0_1425_705" style="mask-type:luminance" maskUnits="userSpaceOnUse" x="2" y="3" width="45" height="47">
<path d="M24.5008 49.75C36.3863 49.75 46.0213 39.3406 46.0213 26.5C46.0213 13.6594 36.3863 3.25 24.5008 3.25C12.6154 3.25 2.98035 13.6594 2.98035 26.5C2.98035 39.3406 12.6154 49.75 24.5008 49.75Z" fill="white"/>
</mask>
<g mask="url(#mask0_1425_705)">
<path d="M34.6621 26.0489L37.7174 22.748L31.1703 15.6748L28.115 18.9756L34.6621 26.0489Z" fill="#FFA479"/>
<path d="M37.7172 22.7482L36.392 21.3164L33.337 24.6169L34.6622 26.0487L37.7172 22.7482Z" fill="#E17C60"/>
<path d="M37.501 24.4838L43.067 18.4705L35.1295 9.89502L29.5635 15.9084L37.501 24.4838Z" fill="#FFEEEE"/>
<path d="M37.501 24.4838L43.067 18.4705L41.0464 16.2875L35.4804 22.3009L37.501 24.4838Z" fill="#FCC3C3"/>
<path d="M40.1529 22.9734L47.9709 14.5271L38.7799 4.59743L30.9619 13.0438L40.1529 22.9734Z" fill="#FC4F4F"/>
<path d="M40.1529 22.9734L47.9709 14.5271L45.3236 11.667L37.5056 20.1134L40.1529 22.9734Z" fill="#D13333"/>
<path d="M39.6226 20.6891C39.2301 20.265 39.2301 19.5775 39.6226 19.1535C40.015 18.7294 40.6512 18.7294 41.0436 19.1535C41.436 19.5775 41.436 20.265 41.0436 20.6891C40.6512 21.1131 40.015 21.1131 39.6226 20.6891Z" fill="#FFEEEE"/>
<path d="M41.4215 18.7423C41.0291 18.3182 41.0291 17.6307 41.4215 17.2067C41.8139 16.7827 42.4501 16.7827 42.8426 17.2067C43.235 17.6307 43.235 18.3182 42.8426 18.7423C42.4501 19.1663 41.8139 19.1663 41.4215 18.7423Z" fill="#FFEEEE"/>
<path d="M29.7246 34.2388L34.8787 28.6705C35.7286 27.7523 35.7286 26.2637 34.8787 25.3454L26.8348 16.655L20.1418 23.8858L29.7246 34.2388Z" fill="#FFA479"/>
<path d="M26.8496 37.5704L21.4802 31.7695L28.6673 24.0047L21.9744 16.7739L13.9305 25.4643C13.0806 26.3825 13.0806 27.8711 13.9305 28.7894L19.0845 34.3577L24.4539 40.1585C25.1154 40.8732 26.188 40.8732 26.8495 40.1585C27.5112 39.4439 27.5112 38.2851 26.8496 37.5704Z" fill="#FECCA7"/>
<path d="M20.6953 19.0941L17.64 15.7932L11.0929 22.8665L14.1482 26.1674L20.6953 19.0941Z" fill="#FECCA7"/>
<path d="M14.7668 24.5158L12.1663 21.7063L11.0926 22.8662L13.6931 25.6757L14.7668 24.5158Z" fill="#FCB98B"/>
<path d="M32.3653 33.1751L26.272 26.5921L28.6676 24.0039L34.7609 30.5869C35.4225 31.3016 35.4225 32.4604 34.7609 33.1751C34.0994 33.8898 33.0268 33.8898 32.3653 33.1751Z" fill="#FECCA7"/>
<path d="M34.1272 33.6053L27.6362 26.5926C27.2595 26.1856 26.6487 26.1856 26.272 26.5926L32.3653 33.1755C32.842 33.6903 33.5314 33.8323 34.1272 33.6053Z" fill="#FCB98B"/>
<path d="M30.6935 36.546L23.8763 29.181L26.272 26.5928L33.0892 33.9578C33.7507 34.6725 33.7507 35.8313 33.0892 36.546C32.4277 37.2607 31.355 37.2607 30.6935 36.546Z" fill="#FECCA7"/>
<path d="M32.4555 36.9757L25.2405 29.1809C24.8639 28.774 24.2531 28.774 23.8763 29.1809L30.6935 36.546C31.1702 37.0609 31.8597 37.2027 32.4555 36.9757Z" fill="#FCB98B"/>
<path d="M27.574 38.3523L21.4807 31.7694L23.8764 29.1812L29.9697 35.7641C30.6312 36.4788 30.6312 37.6377 29.9697 38.3523C29.3082 39.067 28.2355 39.067 27.574 38.3523Z" fill="#FECCA7"/>
<path d="M29.336 38.7816L22.8449 31.7688C22.4682 31.3619 21.8575 31.3619 21.4807 31.7688L27.574 38.3518C28.0506 38.8667 28.7401 39.0085 29.336 38.7816Z" fill="#FCB98B"/>
<path d="M26.216 40.5882L13.3345 26.6714C13.1994 27.4142 13.3979 28.2137 13.9307 28.7892L19.0848 34.3575L24.3744 40.0722C24.8862 40.6252 25.6059 40.7998 26.216 40.5882Z" fill="#FCB98B"/>
<path d="M19.4381 16.1557L13.8721 10.1423L5.93454 18.7178L11.5006 24.7311L19.4381 16.1557Z" fill="#CAE3FF"/>
<path d="M13.233 22.8595L7.66699 16.8462L5.93445 18.718L11.5005 24.7313L13.233 22.8595Z" fill="#8EBDE8"/>
<path d="M18.0405 13.2906L10.2224 4.84424L1.03139 14.7739L8.84943 23.2203L18.0405 13.2906Z" fill="#5481BA"/>
<path d="M11.209 20.6719L3.39099 12.2256L1.0317 14.7745L8.84974 23.2208L11.209 20.6719Z" fill="#3568A0"/>
<path d="M9.3848 20.9095C8.99238 21.3336 8.35616 21.3336 7.96375 20.9095C7.57133 20.4855 7.57133 19.798 7.96375 19.3739C8.35616 18.9499 8.99238 18.9499 9.3848 19.3739C9.77721 19.798 9.77721 20.4855 9.3848 20.9095Z" fill="#CAE3FF"/>
<path d="M7.48784 19.0215C7.09542 19.4455 6.4592 19.4455 6.0669 19.0215C5.67448 18.5974 5.67448 17.9099 6.0669 17.486C6.45931 17.062 7.09553 17.062 7.48784 17.486C7.88025 17.91 7.88025 18.5975 7.48784 19.0215Z" fill="#CAE3FF"/>
<path d="M24.3499 19.3401L29.7479 22.8392C30.1361 23.0908 30.461 23.4419 30.6938 23.8612L33.9327 29.693L24.3499 19.3401Z" fill="#E17C60"/>
<path d="M20.307 23.7077L26.8346 16.6555C25.5115 15.2261 23.3663 15.2261 22.0432 16.6555L17.9113 21.1195C17.2498 21.8342 17.2498 22.993 17.9113 23.7077C18.5728 24.4225 19.6455 24.4225 20.307 23.7077Z" fill="#FFA479"/>
<path d="M18.4213 24.0837C19.0433 24.3828 19.7975 24.2585 20.3078 23.7073L24.3504 19.3397C23.9257 18.8809 23.237 18.8809 22.8123 19.3397L18.4213 24.0837Z" fill="#E17C60"/>
<path d="M16.0653 33.4666L18.2506 31.1057C18.9122 30.391 18.9122 29.2322 18.2506 28.5175C17.5891 27.8028 16.5165 27.8028 15.855 28.5175L13.6696 30.8784C13.0081 31.5931 13.0081 32.752 13.6696 33.4666C14.3311 34.1813 15.4038 34.1813 16.0653 33.4666Z" fill="#FFA479"/>
<path d="M16.0661 33.4666L18.2515 31.1056C18.6637 30.6602 18.8189 30.0423 18.7173 29.4668L14.3147 33.9002C14.9082 34.1218 15.5924 33.9785 16.0661 33.4666Z" fill="#E17C60"/>
<path d="M18.2345 36.3L20.8745 33.4477C21.5361 32.733 21.5361 31.5742 20.8745 30.8595C20.213 30.1448 19.1404 30.1448 18.4789 30.8595L15.8387 33.7118C15.1771 34.4265 15.1771 35.5853 15.8387 36.3C16.5003 37.0147 17.5729 37.0147 18.2345 36.3Z" fill="#FFA479"/>
<path d="M18.2341 36.3003L20.8742 33.4481C21.301 32.9869 21.4507 32.3415 21.3269 31.7493L16.7764 36.8128C17.2919 36.8988 17.837 36.7293 18.2341 36.3003Z" fill="#E17C60"/>
<path d="M20.8573 38.6429L23.0426 36.2819C23.7042 35.5672 23.7042 34.4084 23.0426 33.6937C22.3811 32.979 21.3085 32.979 20.647 33.6937L18.4616 36.0547C17.8001 36.7694 17.8001 37.9282 18.4616 38.6429C19.1231 39.3576 20.1956 39.3576 20.8573 38.6429Z" fill="#FFA479"/>
<path d="M23.4716 34.4805L19.3778 39.1524C19.8996 39.2468 20.4543 39.0782 20.8569 38.6433L23.0422 36.2824C23.4938 35.7944 23.6365 35.0997 23.4716 34.4805Z" fill="#E17C60"/>
<path d="M23.7081 40.7393L25.4386 38.8697C26.1001 38.155 26.1001 36.9962 25.4386 36.2815C24.7771 35.5668 23.7045 35.5668 23.0429 36.2815L21.3124 38.1511C20.6509 38.8658 20.6509 40.0246 21.3124 40.7393C21.974 41.454 23.0466 41.454 23.7081 40.7393Z" fill="#FFA479"/>
<path d="M25.8829 37.1373L22.152 41.2333C22.6955 41.3597 23.2852 41.1961 23.7075 40.7398L25.438 38.8702C25.8729 38.4003 26.0199 37.7387 25.8829 37.1373Z" fill="#E17C60"/>
</g>
</svg>
