<svg width="61" height="64" viewBox="0 0 61 64" fill="none" xmlns="http://www.w3.org/2000/svg">
<path d="M30.5136 63.3575C47.1623 63.3575 60.6588 49.189 60.6588 31.7112C60.6588 14.2335 47.1623 0.0649414 30.5136 0.0649414C13.8648 0.0649414 0.368286 14.2335 0.368286 31.7112C0.368286 49.189 13.8648 63.3575 30.5136 63.3575Z" fill="#FFCF9F"/>
<mask id="mask0_157_22404" style="mask-type:luminance" maskUnits="userSpaceOnUse" x="0" y="0" width="61" height="64">
<path d="M30.5136 63.3575C47.1623 63.3575 60.6588 49.189 60.6588 31.7112C60.6588 14.2335 47.1623 0.0649414 30.5136 0.0649414C13.8648 0.0649414 0.368286 14.2335 0.368286 31.7112C0.368286 49.189 13.8648 63.3575 30.5136 63.3575Z" fill="white"/>
</mask>
<g mask="url(#mask0_157_22404)">
<path d="M44.7472 31.0974L49.027 26.6045L39.8559 16.9768L35.5762 21.4697L44.7472 31.0974Z" fill="#FFA479"/>
<path d="M49.0267 26.6046L47.1703 24.6558L42.8909 29.1482L44.7473 31.097L49.0267 26.6046Z" fill="#E17C60"/>
<path d="M48.7238 28.9672L56.5205 20.7822L45.4018 9.10994L37.6051 17.2949L48.7238 28.9672Z" fill="#FFEEEE"/>
<path d="M48.7238 28.9672L56.5205 20.7822L53.6902 17.8109L45.8934 25.9959L48.7238 28.9672Z" fill="#FCC3C3"/>
<path d="M52.4385 26.9111L63.3898 15.4146L50.5152 1.89897L39.564 13.3955L52.4385 26.9111Z" fill="#FC4F4F"/>
<path d="M52.4385 26.9111L63.3898 15.4146L59.6815 11.5216L48.7302 23.0182L52.4385 26.9111Z" fill="#D13333"/>
<path d="M51.6956 23.8021C51.1459 23.2249 51.1459 22.2891 51.6956 21.7119C52.2453 21.1348 53.1365 21.1348 53.6862 21.7119C54.2358 22.2891 54.2358 23.2249 53.6862 23.8021C53.1365 24.3792 52.2453 24.3792 51.6956 23.8021Z" fill="#FFEEEE"/>
<path d="M54.2155 21.1522C53.6658 20.575 53.6658 19.6392 54.2155 19.062C54.7652 18.4849 55.6564 18.4849 56.2061 19.062C56.7557 19.6392 56.7557 20.575 56.2061 21.1522C55.6564 21.7293 54.7652 21.7293 54.2155 21.1522Z" fill="#FFEEEE"/>
<path d="M37.8309 42.2451L45.0505 34.6659C46.241 33.4162 46.241 31.3899 45.0505 30.14L33.7829 18.3113L24.4076 28.1534L37.8309 42.2451Z" fill="#FFA479"/>
<path d="M33.8037 46.7794L26.2824 38.8835L36.3499 28.3147L26.9746 18.4727L15.7069 30.3014C14.5165 31.5511 14.5165 33.5774 15.7069 34.8273L22.9266 42.4064L30.4478 50.3021C31.3744 51.2749 32.8769 51.2749 33.8036 50.3021C34.7304 49.3295 34.7304 47.7522 33.8037 46.7794Z" fill="#FECCA7"/>
<path d="M25.183 21.6311L20.9032 17.1382L11.7322 26.7659L16.012 31.2587L25.183 21.6311Z" fill="#FECCA7"/>
<path d="M16.8784 29.0104L13.2357 25.1863L11.7318 26.7651L15.3745 30.5892L16.8784 29.0104Z" fill="#FCB98B"/>
<path d="M41.5297 40.7972L32.9944 31.8368L36.3502 28.314L44.8855 37.2743C45.8121 38.2471 45.8121 39.8244 44.8855 40.7972C43.9588 41.77 42.4564 41.77 41.5297 40.7972Z" fill="#FECCA7"/>
<path d="M43.9978 41.3825L34.9053 31.8373C34.3777 31.2834 33.5222 31.2834 32.9944 31.8373L41.5297 40.7976C42.1975 41.4983 43.1632 41.6915 43.9978 41.3825Z" fill="#FCB98B"/>
<path d="M39.1882 45.3853L29.6389 35.3605L32.9947 31.8376L42.544 41.8624C43.4707 42.8352 43.4707 44.4125 42.544 45.3853C41.6173 46.3581 40.1149 46.3581 39.1882 45.3853Z" fill="#FECCA7"/>
<path d="M41.6563 45.97L31.5498 35.3602C31.0222 34.8064 30.1667 34.8064 29.6389 35.3602L39.1882 45.385C39.856 46.0859 40.8217 46.2789 41.6563 45.97Z" fill="#FCB98B"/>
<path d="M34.8183 47.844L26.283 38.8837L29.6387 35.3608L38.1741 44.3212C39.1007 45.2939 39.1007 46.8712 38.1741 47.844C37.2474 48.8168 35.7449 48.8168 34.8183 47.844Z" fill="#FECCA7"/>
<path d="M37.2864 48.4282L28.1939 38.883C27.6662 38.3291 26.8107 38.3291 26.283 38.883L34.8183 47.8433C35.4859 48.5441 36.4517 48.7372 37.2864 48.4282Z" fill="#FCB98B"/>
<path d="M32.9162 50.8871L14.8721 31.9446C14.6828 32.9557 14.9609 34.0439 15.7072 34.8272L22.9269 42.4064L30.3364 50.1848C31.0533 50.9376 32.0614 51.1753 32.9162 50.8871Z" fill="#FCB98B"/>
<path d="M23.422 17.6313L15.6252 9.44629L4.50658 21.1186L12.3033 29.3035L23.422 17.6313Z" fill="#CAE3FF"/>
<path d="M14.73 26.7565L6.93323 18.5715L4.50633 21.1193L12.3031 29.3042L14.73 26.7565Z" fill="#8EBDE8"/>
<path d="M21.4641 13.7317L10.5128 2.23511L-2.36171 15.7507L8.58958 27.2473L21.4641 13.7317Z" fill="#5481BA"/>
<path d="M11.8948 23.7786L0.943481 12.282L-2.36134 15.7514L8.58994 27.2479L11.8948 23.7786Z" fill="#3568A0"/>
<path d="M9.33948 24.1019C8.78979 24.679 7.89859 24.679 7.34891 24.1019C6.79922 23.5247 6.79922 22.5889 7.34891 22.0117C7.89859 21.4346 8.78979 21.4346 9.33948 22.0117C9.88916 22.5889 9.88916 23.5247 9.33948 24.1019Z" fill="#CAE3FF"/>
<path d="M6.68234 21.5321C6.13266 22.1093 5.24146 22.1093 4.69193 21.5321C4.14224 20.9549 4.14224 20.0192 4.69193 19.4422C5.24161 18.865 6.13281 18.865 6.68234 19.4422C7.23203 20.0193 7.23203 20.9551 6.68234 21.5321Z" fill="#CAE3FF"/>
<path d="M30.3021 21.9658L37.8635 26.7286C38.4073 27.071 38.8624 27.5489 39.1886 28.1196L43.7254 36.0575L30.3021 21.9658Z" fill="#E17C60"/>
<path d="M24.6389 27.9104L33.7826 18.3115C31.9292 16.3659 28.9243 16.3659 27.071 18.3115L21.2831 24.3875C20.3565 25.3603 20.3565 26.9376 21.2831 27.9104C22.2098 28.8834 23.7123 28.8834 24.6389 27.9104Z" fill="#FFA479"/>
<path d="M21.9974 28.4223C22.8688 28.8294 23.9253 28.6603 24.64 27.91L30.3028 21.9652C29.7079 21.3407 28.7432 21.3407 28.1483 21.9652L21.9974 28.4223Z" fill="#E17C60"/>
<path d="M18.6973 41.1939L21.7584 37.9803C22.6851 37.0075 22.6851 35.4302 21.7584 34.4574C20.8318 33.4846 19.3293 33.4846 18.4027 34.4574L15.3415 37.671C14.4148 38.6438 14.4148 40.2211 15.3415 41.1939C16.2681 42.1667 17.7706 42.1667 18.6973 41.1939Z" fill="#FFA479"/>
<path d="M18.6983 41.1935L21.7595 37.9799C22.337 37.3736 22.5543 36.5326 22.412 35.7493L16.245 41.7838C17.0763 42.0853 18.0347 41.8903 18.6983 41.1935Z" fill="#E17C60"/>
<path d="M21.7359 45.0508L25.434 41.1685C26.3607 40.1957 26.3607 38.6184 25.434 37.6456C24.5074 36.6728 23.0049 36.6728 22.0782 37.6456L18.3799 41.5279C17.4533 42.5007 17.4533 44.078 18.3799 45.0508C19.3067 46.0236 20.8092 46.0236 21.7359 45.0508Z" fill="#FFA479"/>
<path d="M21.7354 45.0508L25.4336 41.1685C26.0314 40.5408 26.2412 39.6623 26.0678 38.8562L19.6935 45.7484C20.4156 45.8654 21.1792 45.6347 21.7354 45.0508Z" fill="#E17C60"/>
<path d="M25.4097 48.2395L28.4708 45.0259C29.3975 44.0531 29.3975 42.4758 28.4708 41.503C27.5442 40.5302 26.0417 40.5302 25.1151 41.503L22.0539 44.7166C21.1272 45.6894 21.1272 47.2667 22.0539 48.2395C22.9805 49.2123 24.4829 49.2123 25.4097 48.2395Z" fill="#FFA479"/>
<path d="M29.0719 42.5737L23.3375 48.9329C24.0684 49.0614 24.8454 48.8318 25.4094 48.2399L28.4705 45.0263C29.103 44.3622 29.3029 43.4165 29.0719 42.5737Z" fill="#E17C60"/>
<path d="M29.4032 51.0931L31.8272 48.5484C32.7539 47.5756 32.7539 45.9983 31.8272 45.0255C30.9006 44.0527 29.3981 44.0527 28.4715 45.0255L26.0474 47.5702C25.1208 48.543 25.1208 50.1203 26.0474 51.0931C26.9741 52.0659 28.4765 52.0659 29.4032 51.0931Z" fill="#FFA479"/>
<path d="M32.4495 46.1902L27.2233 51.7654C27.9847 51.9374 28.8106 51.7148 29.4021 51.0936L31.8262 48.5488C32.4354 47.9093 32.6414 47.0087 32.4495 46.1902Z" fill="#E17C60"/>
</g>
<path d="M31.2673 4.14281L32.126 5.96957C32.2486 6.23019 32.4853 6.41078 32.7593 6.45249L34.6796 6.74544C35.3694 6.85069 35.6449 7.74071 35.1458 8.25144L33.7563 9.67337C33.5581 9.87627 33.4676 10.1684 33.5144 10.4549L33.8424 12.4626C33.9602 13.1838 33.2392 13.7338 32.6221 13.3933L30.9046 12.4454C30.6596 12.3103 30.3668 12.3103 30.1218 12.4454L28.4043 13.3933C27.7874 13.7338 27.0662 13.1838 27.184 12.4626L27.512 10.4549C27.5588 10.1684 27.4684 9.87627 27.2701 9.67337L25.8806 8.25144C25.3815 7.74071 25.6569 6.85069 26.3468 6.74544L28.2671 6.45249C28.5411 6.41078 28.7778 6.23003 28.9004 5.96957L29.7591 4.14281C30.0674 3.48658 30.9588 3.48658 31.2673 4.14281Z" fill="#FFC432"/>
<path d="M33.8425 12.4633L33.5144 10.4556C33.4676 10.1691 33.558 9.87699 33.7564 9.67408L35.1458 8.25216C35.6097 7.77748 35.4039 6.97623 34.819 6.78076C34.8671 7.05189 34.797 7.34808 34.5785 7.57151L33.189 8.99344C32.9908 9.19634 32.9004 9.48848 32.9471 9.77497L33.2751 11.7826C33.3929 12.5039 32.6719 13.0539 32.0548 12.7134L30.3373 11.7655C30.0923 11.6303 29.7995 11.6303 29.5545 11.7655L27.837 12.7134C27.6189 12.8338 27.3884 12.8411 27.186 12.7708C27.2804 13.3278 27.8792 13.6839 28.4044 13.394L30.1218 12.4462C30.3669 12.311 30.6596 12.311 30.9047 12.4462L32.6221 13.394C33.2392 13.7345 33.9604 13.1845 33.8425 12.4633Z" fill="#FC9815"/>
<path d="M32.3103 6.22801C32.2353 6.15541 32.1725 6.06843 32.1261 5.96981L31.2674 4.14306C30.9589 3.48682 30.0675 3.48682 29.7591 4.14306L28.9003 5.96981C28.7779 6.23043 28.541 6.41102 28.2671 6.45273L26.3468 6.74569C25.657 6.85094 25.3815 7.74095 25.8806 8.25168L27.2702 9.67361C27.3671 9.77288 27.4379 9.89349 27.4798 10.0244C27.7739 10.0985 28.0804 10.1387 28.3961 10.1387C30.4955 10.1386 32.2092 8.40576 32.3103 6.22801Z" fill="#FFD77D"/>
</svg>
