<svg width="33" height="28" viewBox="0 0 33 28" fill="none" xmlns="http://www.w3.org/2000/svg">
<path d="M21.767 22.8995H18.254H17.817V27.019H21.9445V22.8995H21.767Z" fill="#28324E"/>
<path d="M32.0246 0H10.4031V15.9505H32.0246V0Z" fill="#F6F6F6"/>
<path d="M31.2371 0.787498V15.1625H11.1911V0.787498H31.2371ZM32.0246 0H10.4031V15.9505H32.0246V0Z" fill="#878787"/>
<path d="M11.4096 19.111V17.803C10.7886 18.523 10.2756 18.699 9.09861 18.699C9.09311 18.699 9.08761 18.699 9.08161 18.699C9.08061 18.699 9.07911 18.699 9.07761 18.699C9.07661 18.699 9.07511 18.699 9.07361 18.699C9.06811 18.699 9.06261 18.699 9.05661 18.699C7.87961 18.699 7.36661 18.523 6.74561 17.803V19.111L9.07711 21.3375L11.4096 19.111Z" fill="#F2C28D"/>
<path d="M5.733 22.5686L4.5005 22.6761L3.977 20.5331L1.9785 21.0441C0.798 21.4326 0 22.5351 0 23.7786V27.0181H0.740999H2.8835H3.481H6.9915L4.7105 23.2991L5.733 22.5686Z" fill="#28324E"/>
<path d="M16.1776 21.0441L14.1791 20.5331L13.6556 22.6761L12.4231 22.5686L13.4451 23.2986L11.1641 27.0176H14.6746H15.2721H17.4146H18.1556V23.7781C18.1556 22.5351 17.3576 21.4326 16.1776 21.0441Z" fill="#28324E"/>
<path d="M7.52359 22.676L7.01709 22.1431L8.17059 26.0546L8.45309 22.911L8.34809 21.9666L7.52359 22.676Z" fill="#EDEDED"/>
<path d="M9.808 21.9666L9.703 22.911L9.9855 26.0546L11.139 22.1431L10.6325 22.676L9.808 21.9666Z" fill="#EDEDED"/>
<path d="M7.52346 22.6761L8.34796 21.9666L9.07796 21.3376L6.74646 19.1111L6.23096 19.4796L7.01696 22.1431L7.52346 22.6761Z" fill="#C6C6C6"/>
<path d="M9.808 21.9666L10.6325 22.6761L11.139 22.1431L11.9245 19.4796L11.4095 19.1111L9.078 21.3376L9.808 21.9666Z" fill="#C6C6C6"/>
<path d="M9.07802 21.3376L8.34802 21.9667L8.45302 22.9111H9.70302L9.80802 21.9667L9.07802 21.3376Z" fill="#B6312F"/>
<path d="M9.70303 22.9111H8.45303L8.17053 26.0546L8.45453 27.0176H9.70153L9.98553 26.0546L9.70303 22.9111Z" fill="#CF4941"/>
<path d="M9.0575 18.6991C9.063 18.6991 9.0685 18.6991 9.0745 18.6991C9.0755 18.6991 9.077 18.6991 9.0785 18.6991C9.08 18.6991 9.08101 18.6991 9.08251 18.6991C9.08801 18.6991 9.0935 18.6991 9.0995 18.6991C10.2765 18.6991 10.7895 18.5231 11.4105 17.8031C11.6845 17.4856 11.979 17.0631 12.3615 16.5021C12.6845 16.0276 12.9375 15.3186 13.128 14.4216C13.152 14.4296 13.1755 14.4391 13.2005 14.4436C13.281 14.4576 13.3655 14.4471 13.446 14.4156C13.79 14.2856 13.8955 13.7981 13.9975 13.1666C14.124 12.3881 14.088 11.6936 13.6565 11.6236C13.4215 11.5851 13.1795 11.7396 12.9865 12.0166V9.91856C12.9865 9.80906 12.9745 9.70256 12.9545 9.59906C10.6125 9.62756 8.05401 9.98456 5.98301 8.49756C5.49901 8.78806 5.172 9.31256 5.172 9.91906V12.0171C4.979 11.7401 4.737 11.5856 4.502 11.6241C4.0705 11.6941 3.998 12.3886 4.124 13.1671C4.2255 13.7986 4.36851 14.2866 4.71251 14.4161C4.79301 14.4476 4.87751 14.4581 4.95801 14.4441C4.98301 14.4396 5.00651 14.4301 5.03051 14.4221C5.22101 15.3191 5.4735 16.0281 5.797 16.5026C6.1795 17.0636 6.47401 17.4861 6.74801 17.8036C7.36751 18.5231 7.8805 18.6991 9.0575 18.6991Z" fill="#FFD2A1"/>
<path d="M5.17098 12.0161V9.91807C5.17098 9.31207 5.49798 8.78707 5.98198 8.49657C8.05298 9.98357 10.611 9.62657 12.9535 9.59807C12.9735 9.70157 12.9855 9.80806 12.9855 9.91756V12.0156C13.1785 11.7386 13.4205 11.5841 13.6555 11.6226L13.7925 9.81257C13.8275 8.86907 13.471 7.95507 12.8245 7.26907C11.889 6.27707 10.9535 5.95557 9.08248 5.95557C9.08148 5.95557 9.07998 5.95557 9.07848 5.95557C9.07748 5.95557 9.07598 5.95557 9.07448 5.95557C7.20348 5.95557 6.26798 6.27707 5.33248 7.26907C4.68598 7.95507 4.32898 8.86857 4.36448 9.81257L4.50148 11.6226C4.73598 11.5846 4.97798 11.7391 5.17098 12.0161Z" fill="#7D4E24"/>
<path d="M12.423 22.5685L13.655 22.676L14.179 20.533L11.9245 19.4795L11.139 22.143L9.98554 26.0545L9.70154 27.0175H10.0725H10.7775H11.1635L13.4445 23.2985L12.423 22.5685Z" fill="#485678"/>
<path d="M7.01705 22.143L6.23105 19.4795L3.97705 20.533L4.50105 22.676L5.73305 22.5685L4.71155 23.2985L6.99255 27.0175H7.37855H8.08405H8.45455L8.17055 26.0545L7.01705 22.143Z" fill="#485678"/>
<path d="M21.4295 23.282C21.31 23.282 21.2135 23.379 21.214 23.498C21.214 23.617 21.311 23.714 21.43 23.7135C21.549 23.7135 21.646 23.6165 21.6455 23.4975C21.6455 23.3785 21.5485 23.2815 21.4295 23.282Z" fill="white"/>
<path d="M21.4301 23.9526C21.3106 23.9526 21.2141 24.0496 21.2146 24.1686C21.2146 24.2881 21.3116 24.3846 21.4306 24.3841C21.5496 24.3841 21.6461 24.2871 21.6461 24.1681C21.6461 24.0491 21.5496 23.9526 21.4301 23.9526Z" fill="white"/>
<path d="M21.4311 24.6335C21.3121 24.6335 21.2156 24.7305 21.2156 24.8495C21.2156 24.9685 21.3126 25.0655 21.4316 25.065C21.5506 25.065 21.6476 24.968 21.6471 24.849C21.6471 24.73 21.5501 24.6335 21.4311 24.6335Z" fill="white"/>
<path d="M23.038 17.7071L22.664 15.3261L22.2295 15.3856L22.228 15.3866L22.231 14.8681L21.925 14.8351C21.9465 14.9116 21.9495 14.9931 21.9335 15.0726C21.912 15.1801 21.856 15.2841 21.7655 15.3651C21.6425 15.4761 21.518 15.5851 21.3925 15.6936C21.1415 15.9071 20.884 16.1121 20.62 16.3111C20.5675 16.3511 20.5135 16.3896 20.4605 16.4291L20.1255 17.1176C20.146 17.1381 20.1665 17.1616 20.1855 17.1936C20.1865 17.2126 20.8395 18.3216 20.8835 19.0306C20.8865 19.0776 20.9 19.1236 20.907 19.1711C20.998 19.8316 20.639 20.3871 20.2745 20.8326C20.1575 20.9756 20.024 21.1001 19.874 21.2006C19.82 21.2391 19.764 21.2736 19.705 21.3036C19.693 21.3111 19.8425 22.5246 19.8305 22.5321L19.879 22.5246L21.472 22.2406C21.472 22.2406 21.5435 21.9211 21.609 21.6191C21.611 21.6071 21.6145 21.5951 21.618 21.5826C21.624 21.5566 21.629 21.5316 21.6355 21.5056C21.653 21.4286 21.668 21.3571 21.6815 21.2951C22.293 20.9946 22.695 19.8191 22.81 19.6371C23.0085 19.3056 23.1805 19.0001 23.304 18.7771C23.4115 18.5826 23.482 18.4511 23.4985 18.4211L23.502 18.4151L23.038 17.7071Z" fill="#EBAE73"/>
<path d="M19.7055 21.3045C19.7645 21.274 19.8205 21.2395 19.8745 21.2015C20.0245 21.1005 20.1585 20.9765 20.275 20.8335C20.6395 20.388 20.9985 19.832 20.9075 19.172C20.9005 19.1245 20.887 19.079 20.884 19.0315C20.84 18.322 20.187 17.2135 20.186 17.1945C20.1665 17.163 20.1465 17.139 20.126 17.1185L20.461 16.43C20.514 16.391 20.568 16.352 20.6205 16.312C20.884 16.113 21.1415 15.908 21.393 15.6945C21.5185 15.586 21.6425 15.477 21.766 15.366C21.8565 15.285 21.9125 15.181 21.934 15.0735C21.95 14.9945 21.947 14.9125 21.9255 14.836C21.9045 14.7615 21.866 14.6915 21.809 14.633L21.8025 14.625C21.607 14.425 21.288 14.421 21.0805 14.6075C20.7475 14.9095 19.865 15.605 19.781 15.6595C19.2545 16.149 18.5145 17.472 18.5145 17.472C18.475 17.6305 18.0865 19.662 18.7225 20.4915C18.725 20.4955 18.693 20.666 18.6425 20.905C18.5655 21.2725 18.446 21.8055 18.347 22.146L19.832 22.5335C19.843 22.525 19.6935 21.3115 19.7055 21.3045Z" fill="#FFCF9F"/>
<path d="M23.0081 16.612C22.9256 16.671 22.6575 16.8205 22.6575 16.8205C22.401 16.972 22.0835 16.91 21.9485 16.6815L21.9435 16.673C21.8085 16.4445 21.9066 16.1365 22.1631 15.9845L22.5135 15.776C23.2395 15.3985 23.6731 16.2485 23.0081 16.612Z" fill="#FFCF9F"/>
<path d="M23.305 17.5501L22.7085 17.9026C22.452 18.0541 22.1335 17.9901 21.997 17.7591L21.992 17.7506C21.8555 17.5196 21.9525 17.2096 22.209 17.0576L22.8055 16.7051C23.329 16.4201 23.838 17.1316 23.305 17.5501Z" fill="#FFCF9F"/>
<path d="M23.411 18.4985L22.9325 18.7815C22.7265 18.903 22.461 18.835 22.3395 18.629L22.335 18.6215C22.2135 18.4155 22.2815 18.15 22.4875 18.0285L22.966 17.7455C23.433 17.4555 23.8975 18.148 23.411 18.4985Z" fill="#FFCF9F"/>
<path d="M15.1111 12.2001L14.7676 12.0076L16.5546 8.81564L18.7666 8.26414L19.8856 6.12914L22.3246 5.89014L23.5821 6.71964L24.7271 5.40964L27.5986 3.58813L27.8096 3.92113L24.9626 5.72713L23.6536 7.23863L22.2241 6.29563L20.1356 6.50014L19.0336 8.60364L16.8151 9.15663L15.1111 12.2001Z" fill="#DF4937"/>
<path d="M15.0586 12.2605L14.8201 11.947L17.0266 10.269L19.3566 9.97798L20.8591 7.89598L22.7146 8.06748L23.5651 9.19198L25.7711 7.41599L27.6416 6.79248L27.7666 7.16599L25.9296 7.77798L23.4971 9.75498L22.5056 8.44348L21.0466 8.30898L19.5761 10.3475L17.1801 10.647L15.0586 12.2605Z" fill="#0593A1"/>
<path d="M26.7375 12.2685H14.774V3.93652H14.939V12.104H26.7375V12.2685Z" fill="#575756"/>
<path d="M14.511 4.0141L14.8565 2.7251L15.202 4.0141H14.511Z" fill="#575756"/>
<path d="M26.689 12.5161L27.9195 12.1866L26.689 11.8566V12.5161Z" fill="#575756"/>
<path d="M22.085 15.629L21.698 15.5565L23.6685 6.88403L23.7495 6.89903L22.085 15.629Z" fill="#575756"/>
<path d="M22.9715 15.107C23.0135 15.4135 22.846 15.69 22.598 15.724C22.3495 15.758 22.1145 15.537 22.0725 15.23C22.0305 14.9235 22.1975 14.647 22.446 14.613C22.694 14.5795 22.9295 14.8005 22.9715 15.107Z" fill="#FFCF9F"/>
<path d="M21.767 21.4111V22.8996H18.254L18.262 21.3911L21.767 21.4111Z" fill="#EDEDED"/>
</svg>
